# xmcd
#
# Track frame offsets:
#	150
#	30043
#	49115
#	72893
#	107449
#	143372
#	157732
#	183871
#	219048
#
# Disc length: 3483 seconds
#
# Revision: 0
# Processed by: cddbd v1.5.2PL0 Copyright (c) Steve Scherf et al.
# Submitted via: audiograbber 1.83.01
#
DISCID=5b0d9909
DTITLE=Grateful Dead - 94-07-21 Deer Creek Music Centre, Noblesville IN
DYEAR=1900
DGENRE=
TTITLE0=Touch Of Grey
TTITLE1=Greatest Story Ever Told
TTITLE2=Jack-A-Roe
TTITLE3=The Same Thing
TTITLE4=Stagger Lee
TTITLE5=Me and My Uncle
TTITLE6=Mexicali Blues
TTITLE7=Ramble On Rose
TTITLE8=The Music Never Stopped
EXTD=
EXTT0=
EXTT1=
EXTT2=
EXTT3=
EXTT4=
EXTT5=
EXTT6=
EXTT7=
EXTT8=
PLAYORDER=
